<svg width="300" height="300" viewBox="0 0 300 300" fill="none" xmlns="http://www.w3.org/2000/svg">
<path d="M148.975 148.571C226.293 145.817 268.33 69.8901 300 21.7582C285.683 54.9451 242.129 158.514 148.975 161.099C76.7103 163.104 40.998 187.912 7.3393e-05 220.879C20.1737 192.308 71.6573 151.326 148.975 148.571Z" fill="#32DF7A"/>
<path d="M281.779 53.1868L224.512 22.4175" stroke="#32DF7A" stroke-width="5" stroke-linecap="round"/>
<path d="M257.05 88.3516L196.095 53.1868" stroke="#32DF7A" stroke-width="10" stroke-linecap="round"/>
<path d="M221.041 120.44L178.525 94.9451" stroke="#32DF7A" stroke-width="15" stroke-linecap="round"/>
<path d="M159.5 112.5L183.578 128.324" stroke="#00514C" stroke-width="15" stroke-linecap="round"/>
<path d="M176.139 65.9341L230.369 98.6814" stroke="#00514C" stroke-width="10" stroke-linecap="round"/>
<path d="M196.095 28.5714L253.796 60.2198" stroke="#00514C" stroke-width="5" stroke-linecap="round"/>
<path d="M114.967 161.319L126.464 178.242" stroke="#32DF7A" stroke-width="15" stroke-linecap="round"/>
<path d="M121 217L99 182" stroke="#00514C" stroke-width="15" stroke-linecap="round"/>
<path d="M65.7268 174.945L93.7092 219.121" stroke="#32DF7A" stroke-width="10" stroke-linecap="round"/>
<path d="M88.5034 252.528L54.2299 195.824" stroke="#00514C" stroke-width="10" stroke-linecap="round"/>
<path d="M30.8025 196.264L64.2079 257.143" stroke="#32DF7A" stroke-width="5" stroke-linecap="round"/>
<path d="M51.6268 279.121L19.5227 219.341" stroke="#00514C" stroke-width="5" stroke-linecap="round"/>
<path d="M142.733 148.132C138.048 226.374 64.4252 270.769 13.2322 300C42.9502 288.132 151.478 242.418 156.399 148.132C160.217 74.989 203.137 17.8022 224.512 0C196.313 12.0879 147.419 69.8901 142.733 148.132Z" fill="#00514C"/>
</svg>
