<svg width="99" height="74" viewBox="0 0 99 74" fill="none" xmlns="http://www.w3.org/2000/svg">
<path d="M74.2034 10.4785H76.0784C75.9807 11.377 75.7236 12.181 75.3069 12.8906C74.8902 13.6003 74.301 14.1634 73.5393 14.5801C72.7776 14.9902 71.8271 15.1953 70.6877 15.1953C69.8544 15.1953 69.0959 15.0391 68.4124 14.7266C67.7353 14.4141 67.1526 13.9714 66.6643 13.3984C66.176 12.819 65.7984 12.1257 65.5315 11.3184C65.2711 10.5046 65.1409 9.59961 65.1409 8.60352V7.1875C65.1409 6.19141 65.2711 5.28971 65.5315 4.48242C65.7984 3.66862 66.1793 2.97201 66.6741 2.39258C67.1754 1.81315 67.7776 1.36719 68.4807 1.05469C69.1838 0.742188 69.9749 0.585938 70.8538 0.585938C71.928 0.585938 72.8362 0.78776 73.5784 1.19141C74.3206 1.59505 74.8967 2.15495 75.3069 2.87109C75.7236 3.58073 75.9807 4.4043 76.0784 5.3418H74.2034C74.1122 4.67773 73.943 4.10807 73.6956 3.63281C73.4482 3.15104 73.0966 2.77995 72.6409 2.51953C72.1851 2.25911 71.5894 2.12891 70.8538 2.12891C70.2222 2.12891 69.6656 2.24935 69.1838 2.49023C68.7086 2.73112 68.3082 3.07292 67.9827 3.51562C67.6637 3.95833 67.4228 4.48893 67.26 5.10742C67.0972 5.72591 67.0159 6.41276 67.0159 7.16797V8.60352C67.0159 9.30013 67.0875 9.95443 67.2307 10.5664C67.3805 11.1784 67.6051 11.7155 67.9045 12.1777C68.204 12.64 68.5849 13.0046 69.0471 13.2715C69.5094 13.5319 70.0562 13.6621 70.6877 13.6621C71.4885 13.6621 72.1265 13.5352 72.6018 13.2812C73.0771 13.0273 73.4351 12.6628 73.676 12.1875C73.9234 11.7122 74.0992 11.1426 74.2034 10.4785ZM87.9338 6.89453V8.42773H80.2385V6.89453H87.9338ZM80.5315 0.78125V15H78.6467V0.78125H80.5315ZM89.5745 0.78125V15H87.6995V0.78125H89.5745ZM93.5764 14.0957H94.4202C94.7483 14.0957 95.0198 14.0391 95.2346 13.9258C95.4534 13.8125 95.6155 13.6562 95.7209 13.457C95.8264 13.2578 95.8792 13.0293 95.8792 12.7715C95.8792 12.502 95.8303 12.2715 95.7327 12.0801C95.6389 11.8848 95.4944 11.7344 95.2991 11.6289C95.1077 11.5234 94.8635 11.4707 94.5667 11.4707C94.3167 11.4707 94.0901 11.5215 93.887 11.623C93.6877 11.7207 93.5295 11.8613 93.4124 12.0449C93.2952 12.2246 93.2366 12.4395 93.2366 12.6895H91.8186C91.8186 12.2363 91.9377 11.834 92.176 11.4824C92.4143 11.1309 92.7385 10.8555 93.1487 10.6562C93.5627 10.4531 94.0276 10.3516 94.5432 10.3516C95.094 10.3516 95.5745 10.4434 95.9846 10.627C96.3987 10.8066 96.7209 11.0762 96.9514 11.4355C97.1819 11.7949 97.2971 12.2402 97.2971 12.7715C97.2971 13.0137 97.2405 13.2598 97.1272 13.5098C97.0139 13.7598 96.8459 13.9883 96.6233 14.1953C96.4006 14.3984 96.1233 14.5645 95.7913 14.6934C95.4592 14.8184 95.0745 14.8809 94.637 14.8809H93.5764V14.0957ZM93.5764 15.1973V14.4238H94.637C95.137 14.4238 95.5627 14.4824 95.9143 14.5996C96.2698 14.7168 96.5588 14.8789 96.7815 15.0859C97.0042 15.2891 97.1663 15.5215 97.2678 15.7832C97.3733 16.0449 97.426 16.3223 97.426 16.6152C97.426 17.0137 97.3538 17.3691 97.2092 17.6816C97.0686 17.9902 96.8674 18.252 96.6057 18.4668C96.344 18.6816 96.0374 18.8438 95.6858 18.9531C95.3381 19.0625 94.9592 19.1172 94.5491 19.1172C94.1819 19.1172 93.8303 19.0664 93.4944 18.9648C93.1584 18.8633 92.8577 18.7129 92.592 18.5137C92.3264 18.3105 92.1155 18.0586 91.9592 17.7578C91.8069 17.4531 91.7307 17.1016 91.7307 16.7031H93.1428C93.1428 16.957 93.2014 17.1816 93.3186 17.377C93.4397 17.5684 93.6077 17.7188 93.8225 17.8281C94.0413 17.9375 94.2913 17.9922 94.5725 17.9922C94.8694 17.9922 95.1252 17.9395 95.3401 17.834C95.5549 17.7285 95.719 17.5723 95.8323 17.3652C95.9495 17.1582 96.0081 16.9082 96.0081 16.6152C96.0081 16.2832 95.9436 16.0137 95.8147 15.8066C95.6858 15.5996 95.5022 15.4473 95.2639 15.3496C95.0256 15.248 94.7444 15.1973 94.4202 15.1973H93.5764ZM77.0647 27.7812V44.6367H75.6096V27.7812H77.0647ZM9.71118 64.4785H11.5862C11.4885 65.377 11.2314 66.181 10.8147 66.8906C10.398 67.6003 9.80884 68.1634 9.04712 68.5801C8.2854 68.9902 7.33488 69.1953 6.19556 69.1953C5.36222 69.1953 4.60376 69.0391 3.92017 68.7266C3.24308 68.4141 2.6604 67.9714 2.17212 67.3984C1.68384 66.819 1.30623 66.1257 1.03931 65.3184C0.77889 64.5046 0.648682 63.5996 0.648682 62.6035V61.1875C0.648682 60.1914 0.77889 59.2897 1.03931 58.4824C1.30623 57.6686 1.68709 56.972 2.18188 56.3926C2.68319 55.8132 3.2854 55.3672 3.98853 55.0547C4.69165 54.7422 5.48267 54.5859 6.36157 54.5859C7.43579 54.5859 8.34399 54.7878 9.08618 55.1914C9.82837 55.5951 10.4045 56.1549 10.8147 56.8711C11.2314 57.5807 11.4885 58.4043 11.5862 59.3418H9.71118C9.62004 58.6777 9.45076 58.1081 9.20337 57.6328C8.95597 57.151 8.60441 56.7799 8.14868 56.5195C7.69295 56.2591 7.09725 56.1289 6.36157 56.1289C5.73006 56.1289 5.17342 56.2493 4.69165 56.4902C4.21639 56.7311 3.816 57.0729 3.49048 57.5156C3.17147 57.9583 2.93058 58.4889 2.76782 59.1074C2.60506 59.7259 2.52368 60.4128 2.52368 61.168V62.6035C2.52368 63.3001 2.5953 63.9544 2.73853 64.5664C2.88826 65.1784 3.11287 65.7155 3.41235 66.1777C3.71183 66.64 4.09269 67.0046 4.55493 67.2715C5.01717 67.5319 5.56405 67.6621 6.19556 67.6621C6.99634 67.6621 7.63436 67.5352 8.10962 67.2812C8.58488 67.0273 8.94295 66.6628 9.18384 66.1875C9.43123 65.7122 9.60701 65.1426 9.71118 64.4785ZM23.4417 60.8945V62.4277H15.7463V60.8945H23.4417ZM16.0393 54.7812V69H14.1545V54.7812H16.0393ZM25.0823 54.7812V69H23.2073V54.7812H25.0823ZM29.0842 68.0957H29.928C30.2561 68.0957 30.5276 68.0391 30.7424 67.9258C30.9612 67.8125 31.1233 67.6562 31.2288 67.457C31.3342 67.2578 31.387 67.0293 31.387 66.7715C31.387 66.502 31.3381 66.2715 31.2405 66.0801C31.1467 65.8848 31.0022 65.7344 30.8069 65.6289C30.6155 65.5234 30.3713 65.4707 30.0745 65.4707C29.8245 65.4707 29.5979 65.5215 29.3948 65.623C29.1956 65.7207 29.0374 65.8613 28.9202 66.0449C28.803 66.2246 28.7444 66.4395 28.7444 66.6895H27.3264C27.3264 66.2363 27.4456 65.834 27.6838 65.4824C27.9221 65.1309 28.2463 64.8555 28.6565 64.6562C29.0706 64.4531 29.5354 64.3516 30.051 64.3516C30.6018 64.3516 31.0823 64.4434 31.4924 64.627C31.9065 64.8066 32.2288 65.0762 32.4592 65.4355C32.6897 65.7949 32.8049 66.2402 32.8049 66.7715C32.8049 67.0137 32.7483 67.2598 32.635 67.5098C32.5217 67.7598 32.3538 67.9883 32.1311 68.1953C31.9084 68.3984 31.6311 68.5645 31.2991 68.6934C30.967 68.8184 30.5823 68.8809 30.1448 68.8809H29.0842V68.0957ZM29.0842 69.1973V68.4238H30.1448C30.6448 68.4238 31.0706 68.4824 31.4221 68.5996C31.7776 68.7168 32.0667 68.8789 32.2893 69.0859C32.512 69.2891 32.6741 69.5215 32.7756 69.7832C32.8811 70.0449 32.9338 70.3223 32.9338 70.6152C32.9338 71.0137 32.8616 71.3691 32.717 71.6816C32.5764 71.9902 32.3752 72.252 32.1135 72.4668C31.8518 72.6816 31.5452 72.8438 31.1936 72.9531C30.8459 73.0625 30.467 73.1172 30.0569 73.1172C29.6897 73.1172 29.3381 73.0664 29.0022 72.9648C28.6663 72.8633 28.3655 72.7129 28.0999 72.5137C27.8342 72.3105 27.6233 72.0586 27.467 71.7578C27.3147 71.4531 27.2385 71.1016 27.2385 70.7031H28.6506C28.6506 70.957 28.7092 71.1816 28.8264 71.377C28.9475 71.5684 29.1155 71.7188 29.3303 71.8281C29.5491 71.9375 29.7991 71.9922 30.0803 71.9922C30.3772 71.9922 30.6331 71.9395 30.8479 71.834C31.0627 71.7285 31.2268 71.5723 31.3401 71.3652C31.4573 71.1582 31.5159 70.9082 31.5159 70.6152C31.5159 70.2832 31.4514 70.0137 31.3225 69.8066C31.1936 69.5996 31.01 69.4473 30.7717 69.3496C30.5334 69.248 30.2522 69.1973 29.928 69.1973H29.0842ZM58.3368 61.1582V62.6426H45.2899V61.1582H58.3368ZM74.704 64.4785H76.579C76.4813 65.377 76.2242 66.181 75.8075 66.8906C75.3908 67.6003 74.8017 68.1634 74.0399 68.5801C73.2782 68.9902 72.3277 69.1953 71.1884 69.1953C70.355 69.1953 69.5966 69.0391 68.913 68.7266C68.2359 68.4141 67.6532 67.9714 67.1649 67.3984C66.6767 66.819 66.299 66.1257 66.0321 65.3184C65.7717 64.5046 65.6415 63.5996 65.6415 62.6035V61.1875C65.6415 60.1914 65.7717 59.2897 66.0321 58.4824C66.299 57.6686 66.6799 56.972 67.1747 56.3926C67.676 55.8132 68.2782 55.3672 68.9813 55.0547C69.6845 54.7422 70.4755 54.5859 71.3544 54.5859C72.4286 54.5859 73.3368 54.7878 74.079 55.1914C74.8212 55.5951 75.3974 56.1549 75.8075 56.8711C76.2242 57.5807 76.4813 58.4043 76.579 59.3418H74.704C74.6128 58.6777 74.4436 58.1081 74.1962 57.6328C73.9488 57.151 73.5972 56.7799 73.1415 56.5195C72.6858 56.2591 72.0901 56.1289 71.3544 56.1289C70.7229 56.1289 70.1662 56.2493 69.6845 56.4902C69.2092 56.7311 68.8088 57.0729 68.4833 57.5156C68.1643 57.9583 67.9234 58.4889 67.7606 59.1074C67.5979 59.7259 67.5165 60.4128 67.5165 61.168V62.6035C67.5165 63.3001 67.5881 63.9544 67.7313 64.5664C67.8811 65.1784 68.1057 65.7155 68.4052 66.1777C68.7046 66.64 69.0855 67.0046 69.5477 67.2715C70.01 67.5319 70.5569 67.6621 71.1884 67.6621C71.9892 67.6621 72.6272 67.5352 73.1024 67.2812C73.5777 67.0273 73.9358 66.6628 74.1767 66.1875C74.424 65.7122 74.5998 65.1426 74.704 64.4785ZM88.4345 60.8945V62.4277H80.7392V60.8945H88.4345ZM81.0321 54.7812V69H79.1474V54.7812H81.0321ZM90.0751 54.7812V69H88.2001V54.7812H90.0751ZM98.1376 71.875V73H92.4188V72.0332L95.1962 69.0039C95.5009 68.6602 95.7411 68.3633 95.9169 68.1133C96.0927 67.8633 96.2157 67.6387 96.286 67.4395C96.3602 67.2363 96.3974 67.0391 96.3974 66.8477C96.3974 66.5781 96.3466 66.3418 96.245 66.1387C96.1474 65.9316 96.0028 65.7695 95.8114 65.6523C95.62 65.5312 95.3876 65.4707 95.1142 65.4707C94.7977 65.4707 94.5321 65.5391 94.3173 65.6758C94.1024 65.8125 93.9403 66.002 93.8309 66.2441C93.7216 66.4824 93.6669 66.7559 93.6669 67.0645H92.2548C92.2548 66.5684 92.3681 66.1152 92.5946 65.7051C92.8212 65.291 93.1493 64.9629 93.579 64.7207C94.0087 64.4746 94.5263 64.3516 95.1317 64.3516C95.702 64.3516 96.1864 64.4473 96.5849 64.6387C96.9833 64.8301 97.286 65.1016 97.4931 65.4531C97.704 65.8047 97.8095 66.2207 97.8095 66.7012C97.8095 66.9668 97.7665 67.2305 97.6806 67.4922C97.5946 67.7539 97.4716 68.0156 97.3114 68.2773C97.1552 68.5352 96.9696 68.7949 96.7548 69.0566C96.5399 69.3145 96.3036 69.5762 96.0458 69.8418L94.2001 71.875H98.1376Z" fill="black"/>
</svg>
