<svg width="322" height="168" viewBox="0 0 322 168" fill="none" xmlns="http://www.w3.org/2000/svg">
<path d="M30 19.1018V20.635H19.2383V19.1018H30ZM19.541 19.1018V24.1311H17.6758L17.666 19.1018H19.541ZM31.6406 19.1018L31.6211 24.1213H29.7559V19.1018H31.6406ZM28.1543 6.41626V7.95923H21.9238V6.41626H28.1543ZM29.7754 6.41626V20.635H27.9004V6.41626H29.7754ZM21.2793 6.41626H23.1641L22.8711 12.1389C22.832 12.9983 22.7507 13.7926 22.627 14.5217C22.5033 15.2444 22.3503 15.9052 22.168 16.5042C21.9857 17.1031 21.7773 17.6402 21.543 18.1155C21.3086 18.5842 21.0579 18.9911 20.791 19.3362C20.5241 19.6747 20.2441 19.9547 19.9512 20.176C19.6647 20.3909 19.375 20.5439 19.082 20.635H18.2227V19.1018H18.8281C18.9974 18.9195 19.1895 18.6558 19.4043 18.3108C19.6257 17.9657 19.8438 17.5198 20.0586 16.9729C20.2799 16.4195 20.472 15.7457 20.6348 14.9514C20.804 14.1571 20.918 13.2196 20.9766 12.1389L21.2793 6.41626ZM39.8145 18.8284V13.3889C39.8145 12.9722 39.7298 12.6109 39.5605 12.3049C39.3978 11.9924 39.1504 11.7515 38.8184 11.5823C38.4863 11.413 38.0762 11.3284 37.5879 11.3284C37.1322 11.3284 36.7318 11.4065 36.3867 11.5627C36.0482 11.719 35.7812 11.9241 35.5859 12.178C35.3971 12.4319 35.3027 12.7053 35.3027 12.9983H33.4961C33.4961 12.6207 33.5938 12.2463 33.7891 11.8752C33.9844 11.5042 34.2643 11.1689 34.6289 10.8694C35 10.5634 35.4427 10.3225 35.957 10.1467C36.4779 9.96444 37.0573 9.87329 37.6953 9.87329C38.4635 9.87329 39.1406 10.0035 39.7266 10.2639C40.319 10.5243 40.7812 10.9182 41.1133 11.4456C41.4518 11.9664 41.6211 12.6207 41.6211 13.4084V18.3303C41.6211 18.6819 41.6504 19.0562 41.709 19.4534C41.7741 19.8505 41.8685 20.1923 41.9922 20.4788V20.635H40.1074C40.0163 20.4267 39.9447 20.15 39.8926 19.8049C39.8405 19.4534 39.8145 19.1278 39.8145 18.8284ZM40.127 14.2288L40.1465 15.4983H38.3203C37.806 15.4983 37.347 15.5406 36.9434 15.6252C36.5397 15.7034 36.2012 15.8238 35.9277 15.9866C35.6543 16.1493 35.446 16.3544 35.3027 16.6018C35.1595 16.8427 35.0879 17.1259 35.0879 17.4514C35.0879 17.7834 35.1628 18.0862 35.3125 18.3596C35.4622 18.6331 35.6868 18.8512 35.9863 19.0139C36.2923 19.1702 36.6667 19.2483 37.1094 19.2483C37.6628 19.2483 38.151 19.1311 38.5742 18.8967C38.9974 18.6624 39.3327 18.3759 39.5801 18.0374C39.834 17.6988 39.9707 17.37 39.9902 17.051L40.7617 17.9202C40.7161 18.1936 40.5924 18.4963 40.3906 18.8284C40.1888 19.1604 39.9186 19.4794 39.5801 19.7854C39.248 20.0849 38.8509 20.3355 38.3887 20.5374C37.9329 20.7327 37.4186 20.8303 36.8457 20.8303C36.1296 20.8303 35.5013 20.6903 34.9609 20.4104C34.4271 20.1305 34.0104 19.7561 33.7109 19.2874C33.418 18.8121 33.2715 18.2815 33.2715 17.6956C33.2715 17.1292 33.3822 16.6311 33.6035 16.2014C33.8249 15.7652 34.1439 15.4039 34.5605 15.1174C34.9772 14.8245 35.4785 14.6031 36.0645 14.4534C36.6504 14.3036 37.3047 14.2288 38.0273 14.2288H40.127ZM51.6309 14.6487V16.1135H46.0449V14.6487H51.6309ZM46.4258 10.0686V20.635H44.6191V10.0686H46.4258ZM53.0957 10.0686V20.635H51.2793V10.0686H53.0957ZM55.5273 15.469V15.2444C55.5273 14.4827 55.638 13.7763 55.8594 13.1252C56.0807 12.4677 56.3997 11.898 56.8164 11.4163C57.2331 10.928 57.7376 10.5504 58.3301 10.2834C58.9225 10.01 59.5866 9.87329 60.3223 9.87329C61.0645 9.87329 61.7318 10.01 62.3242 10.2834C62.9232 10.5504 63.431 10.928 63.8477 11.4163C64.2708 11.898 64.5931 12.4677 64.8145 13.1252C65.0358 13.7763 65.1465 14.4827 65.1465 15.2444V15.469C65.1465 16.2307 65.0358 16.9371 64.8145 17.5881C64.5931 18.2392 64.2708 18.8088 63.8477 19.2971C63.431 19.7789 62.9264 20.1565 62.334 20.4299C61.748 20.6969 61.084 20.8303 60.3418 20.8303C59.5996 20.8303 58.9323 20.6969 58.3398 20.4299C57.7474 20.1565 57.2396 19.7789 56.8164 19.2971C56.3997 18.8088 56.0807 18.2392 55.8594 17.5881C55.638 16.9371 55.5273 16.2307 55.5273 15.469ZM57.334 15.2444V15.469C57.334 15.9963 57.3958 16.4944 57.5195 16.9631C57.6432 17.4254 57.8288 17.8355 58.0762 18.1936C58.3301 18.5517 58.6458 18.8349 59.0234 19.0432C59.401 19.245 59.8405 19.3459 60.3418 19.3459C60.8366 19.3459 61.2695 19.245 61.6406 19.0432C62.0182 18.8349 62.3307 18.5517 62.5781 18.1936C62.8255 17.8355 63.0111 17.4254 63.1348 16.9631C63.265 16.4944 63.3301 15.9963 63.3301 15.469V15.2444C63.3301 14.7236 63.265 14.232 63.1348 13.7698C63.0111 13.301 62.8223 12.8876 62.5684 12.5295C62.321 12.165 62.0085 11.8785 61.6309 11.6702C61.2598 11.4618 60.8236 11.3577 60.3223 11.3577C59.8275 11.3577 59.3913 11.4618 59.0137 11.6702C58.6426 11.8785 58.3301 12.165 58.0762 12.5295C57.8288 12.8876 57.6432 13.301 57.5195 13.7698C57.3958 14.232 57.334 14.7236 57.334 15.2444ZM67.334 19.678C67.334 19.372 67.4284 19.1148 67.6172 18.9065C67.8125 18.6917 68.0924 18.5842 68.457 18.5842C68.8216 18.5842 69.0983 18.6917 69.2871 18.9065C69.4824 19.1148 69.5801 19.372 69.5801 19.678C69.5801 19.9775 69.4824 20.2314 69.2871 20.4397C69.0983 20.648 68.8216 20.7522 68.457 20.7522C68.0924 20.7522 67.8125 20.648 67.6172 20.4397C67.4284 20.2314 67.334 19.9775 67.334 19.678ZM67.3438 11.0549C67.3438 10.7489 67.4382 10.4918 67.627 10.2834C67.8223 10.0686 68.1022 9.96118 68.4668 9.96118C68.8314 9.96118 69.1081 10.0686 69.2969 10.2834C69.4922 10.4918 69.5898 10.7489 69.5898 11.0549C69.5898 11.3544 69.4922 11.6083 69.2969 11.8167C69.1081 12.025 68.8314 12.1292 68.4668 12.1292C68.1022 12.1292 67.8223 12.025 67.627 11.8167C67.4382 11.6083 67.3438 11.3544 67.3438 11.0549Z" fill="black"/>
<path d="M202.645 15.0588H198.846V13.5256H202.645C203.38 13.5256 203.976 13.4084 204.432 13.1741C204.887 12.9397 205.219 12.6142 205.428 12.1975C205.643 11.7808 205.75 11.3056 205.75 10.7717C205.75 10.2834 205.643 9.82446 205.428 9.39478C205.219 8.96509 204.887 8.62004 204.432 8.35962C203.976 8.09269 203.38 7.95923 202.645 7.95923H199.285V20.635H197.4V6.41626H202.645C203.719 6.41626 204.627 6.60181 205.369 6.9729C206.111 7.34399 206.674 7.85832 207.059 8.51587C207.443 9.16691 207.635 9.91235 207.635 10.7522C207.635 11.6637 207.443 12.4417 207.059 13.0862C206.674 13.7307 206.111 14.2222 205.369 14.5608C204.627 14.8928 203.719 15.0588 202.645 15.0588ZM213.992 20.8303C213.257 20.8303 212.589 20.7066 211.99 20.4592C211.398 20.2053 210.887 19.8505 210.457 19.3948C210.034 18.939 209.708 18.3987 209.48 17.7737C209.253 17.1487 209.139 16.4651 209.139 15.7229V15.3127C209.139 14.4534 209.266 13.6884 209.52 13.0178C209.773 12.3407 210.118 11.7678 210.555 11.2991C210.991 10.8303 211.486 10.4755 212.039 10.2346C212.592 9.99373 213.165 9.87329 213.758 9.87329C214.513 9.87329 215.164 10.0035 215.711 10.2639C216.264 10.5243 216.717 10.8889 217.068 11.3577C217.42 11.8199 217.68 12.3668 217.85 12.9983C218.019 13.6233 218.104 14.3069 218.104 15.0491V15.8596H210.213V14.385H216.297V14.2483C216.271 13.7795 216.173 13.3238 216.004 12.8811C215.841 12.4384 215.581 12.0738 215.223 11.7874C214.865 11.5009 214.376 11.3577 213.758 11.3577C213.348 11.3577 212.97 11.4456 212.625 11.6213C212.28 11.7906 211.984 12.0445 211.736 12.3831C211.489 12.7216 211.297 13.135 211.16 13.6233C211.023 14.1116 210.955 14.6747 210.955 15.3127V15.7229C210.955 16.2242 211.023 16.6962 211.16 17.1389C211.303 17.5751 211.508 17.9592 211.775 18.2913C212.049 18.6233 212.378 18.8837 212.762 19.0725C213.152 19.2613 213.595 19.3557 214.09 19.3557C214.728 19.3557 215.268 19.2255 215.711 18.9651C216.154 18.7047 216.541 18.3564 216.873 17.9202L217.967 18.7893C217.739 19.1344 217.449 19.4631 217.098 19.7756C216.746 20.0881 216.313 20.342 215.799 20.5374C215.291 20.7327 214.689 20.8303 213.992 20.8303ZM220.369 10.0686H222.176V19.1506H226.043V10.0686H227.859V19.1506H231.717V10.0686H233.523V20.635H220.369V10.0686ZM240.789 20.8303C240.053 20.8303 239.386 20.7066 238.787 20.4592C238.195 20.2053 237.684 19.8505 237.254 19.3948C236.831 18.939 236.505 18.3987 236.277 17.7737C236.049 17.1487 235.936 16.4651 235.936 15.7229V15.3127C235.936 14.4534 236.062 13.6884 236.316 13.0178C236.57 12.3407 236.915 11.7678 237.352 11.2991C237.788 10.8303 238.283 10.4755 238.836 10.2346C239.389 9.99373 239.962 9.87329 240.555 9.87329C241.31 9.87329 241.961 10.0035 242.508 10.2639C243.061 10.5243 243.514 10.8889 243.865 11.3577C244.217 11.8199 244.477 12.3668 244.646 12.9983C244.816 13.6233 244.9 14.3069 244.9 15.0491V15.8596H237.01V14.385H243.094V14.2483C243.068 13.7795 242.97 13.3238 242.801 12.8811C242.638 12.4384 242.378 12.0738 242.02 11.7874C241.661 11.5009 241.173 11.3577 240.555 11.3577C240.145 11.3577 239.767 11.4456 239.422 11.6213C239.077 11.7906 238.781 12.0445 238.533 12.3831C238.286 12.7216 238.094 13.135 237.957 13.6233C237.82 14.1116 237.752 14.6747 237.752 15.3127V15.7229C237.752 16.2242 237.82 16.6962 237.957 17.1389C238.1 17.5751 238.305 17.9592 238.572 18.2913C238.846 18.6233 239.174 18.8837 239.559 19.0725C239.949 19.2613 240.392 19.3557 240.887 19.3557C241.525 19.3557 242.065 19.2255 242.508 18.9651C242.951 18.7047 243.338 18.3564 243.67 17.9202L244.764 18.7893C244.536 19.1344 244.246 19.4631 243.895 19.7756C243.543 20.0881 243.11 20.342 242.596 20.5374C242.088 20.7327 241.486 20.8303 240.789 20.8303ZM254.178 14.6487V16.1135H248.592V14.6487H254.178ZM248.973 10.0686V20.635H247.166V10.0686H248.973ZM255.643 10.0686V20.635H253.826V10.0686H255.643ZM260.506 17.7737L265.379 10.0686H267.195V20.635H265.379V12.9299L260.506 20.635H258.709V10.0686H260.506V17.7737ZM274.48 20.8303C273.745 20.8303 273.077 20.7066 272.479 20.4592C271.886 20.2053 271.375 19.8505 270.945 19.3948C270.522 18.939 270.197 18.3987 269.969 17.7737C269.741 17.1487 269.627 16.4651 269.627 15.7229V15.3127C269.627 14.4534 269.754 13.6884 270.008 13.0178C270.262 12.3407 270.607 11.7678 271.043 11.2991C271.479 10.8303 271.974 10.4755 272.527 10.2346C273.081 9.99373 273.654 9.87329 274.246 9.87329C275.001 9.87329 275.652 10.0035 276.199 10.2639C276.753 10.5243 277.205 10.8889 277.557 11.3577C277.908 11.8199 278.169 12.3668 278.338 12.9983C278.507 13.6233 278.592 14.3069 278.592 15.0491V15.8596H270.701V14.385H276.785V14.2483C276.759 13.7795 276.661 13.3238 276.492 12.8811C276.329 12.4384 276.069 12.0738 275.711 11.7874C275.353 11.5009 274.865 11.3577 274.246 11.3577C273.836 11.3577 273.458 11.4456 273.113 11.6213C272.768 11.7906 272.472 12.0445 272.225 12.3831C271.977 12.7216 271.785 13.135 271.648 13.6233C271.512 14.1116 271.443 14.6747 271.443 15.3127V15.7229C271.443 16.2242 271.512 16.6962 271.648 17.1389C271.792 17.5751 271.997 17.9592 272.264 18.2913C272.537 18.6233 272.866 18.8837 273.25 19.0725C273.641 19.2613 274.083 19.3557 274.578 19.3557C275.216 19.3557 275.757 19.2255 276.199 18.9651C276.642 18.7047 277.029 18.3564 277.361 17.9202L278.455 18.7893C278.227 19.1344 277.938 19.4631 277.586 19.7756C277.234 20.0881 276.801 20.342 276.287 20.5374C275.779 20.7327 275.177 20.8303 274.48 20.8303ZM280.623 19.678C280.623 19.372 280.717 19.1148 280.906 18.9065C281.102 18.6917 281.382 18.5842 281.746 18.5842C282.111 18.5842 282.387 18.6917 282.576 18.9065C282.771 19.1148 282.869 19.372 282.869 19.678C282.869 19.9775 282.771 20.2314 282.576 20.4397C282.387 20.648 282.111 20.7522 281.746 20.7522C281.382 20.7522 281.102 20.648 280.906 20.4397C280.717 20.2314 280.623 19.9775 280.623 19.678ZM280.633 11.0549C280.633 10.7489 280.727 10.4918 280.916 10.2834C281.111 10.0686 281.391 9.96118 281.756 9.96118C282.12 9.96118 282.397 10.0686 282.586 10.2834C282.781 10.4918 282.879 10.7489 282.879 11.0549C282.879 11.3544 282.781 11.6083 282.586 11.8167C282.397 12.025 282.12 12.1292 281.756 12.1292C281.391 12.1292 281.111 12.025 280.916 11.8167C280.727 11.6083 280.633 11.3544 280.633 11.0549Z" fill="black"/>
<line x1="172.168" y1="3.80957" x2="172.168" y2="167.302" stroke="black" stroke-width="2"/>
<line x1="1.16797" y1="94.873" x2="171.168" y2="94.873" stroke="black" stroke-width="2"/>
<path d="M7.4082 51.4768L11.5977 39.4163H13.6387L8.375 53.635H6.91992L7.4082 51.4768ZM3.49219 39.4163L7.64258 51.4768L8.16016 53.635H6.70508L1.45117 39.4163H3.49219ZM28.4922 44.1135V45.6858H20.3477V44.1135H28.4922ZM28.4922 48.1663V49.7385H20.3477V48.1663H28.4922ZM45.2988 52.1506V53.635H35.9922V52.3362L40.6504 47.1506C41.2233 46.5126 41.666 45.9722 41.9785 45.5295C42.2975 45.0803 42.5189 44.6799 42.6426 44.3284C42.7728 43.9703 42.8379 43.6057 42.8379 43.2346C42.8379 42.7659 42.7402 42.3427 42.5449 41.9651C42.3561 41.581 42.0762 41.275 41.7051 41.0471C41.334 40.8193 40.8848 40.7053 40.3574 40.7053C39.7259 40.7053 39.1986 40.829 38.7754 41.0764C38.3587 41.3173 38.0462 41.6558 37.8379 42.092C37.6296 42.5282 37.5254 43.0295 37.5254 43.5959H35.7188C35.7188 42.7952 35.8945 42.0627 36.2461 41.3987C36.5977 40.7346 37.1185 40.2073 37.8086 39.8167C38.4987 39.4195 39.3483 39.2209 40.3574 39.2209C41.2559 39.2209 42.0241 39.3805 42.6621 39.6995C43.3001 40.012 43.7884 40.4547 44.127 41.0276C44.472 41.594 44.6445 42.2581 44.6445 43.0198C44.6445 43.4364 44.5729 43.8596 44.4297 44.2893C44.293 44.7125 44.1009 45.1357 43.8535 45.5588C43.6126 45.982 43.3294 46.3987 43.0039 46.8088C42.6849 47.219 42.3431 47.6226 41.9785 48.0198L38.1699 52.1506H45.2988ZM49.0684 51.4866V52.9417C49.0684 53.5341 48.9186 54.1591 48.6191 54.8167C48.3197 55.4807 47.8997 56.0341 47.3594 56.4768L46.334 55.7639C46.5423 55.4775 46.7181 55.1845 46.8613 54.885C47.0046 54.592 47.112 54.2861 47.1836 53.967C47.2617 53.6545 47.3008 53.3225 47.3008 52.9709V51.4866H49.0684ZM60.4941 52.1506V53.635H51.1875V52.3362L55.8457 47.1506C56.4186 46.5126 56.8613 45.9722 57.1738 45.5295C57.4928 45.0803 57.7142 44.6799 57.8379 44.3284C57.9681 43.9703 58.0332 43.6057 58.0332 43.2346C58.0332 42.7659 57.9355 42.3427 57.7402 41.9651C57.5514 41.581 57.2715 41.275 56.9004 41.0471C56.5293 40.8193 56.0801 40.7053 55.5527 40.7053C54.9212 40.7053 54.3939 40.829 53.9707 41.0764C53.554 41.3173 53.2415 41.6558 53.0332 42.092C52.8249 42.5282 52.7207 43.0295 52.7207 43.5959H50.9141C50.9141 42.7952 51.0898 42.0627 51.4414 41.3987C51.793 40.7346 52.3138 40.2073 53.0039 39.8167C53.694 39.4195 54.5436 39.2209 55.5527 39.2209C56.4512 39.2209 57.2194 39.3805 57.8574 39.6995C58.4954 40.012 58.9837 40.4547 59.3223 41.0276C59.6673 41.594 59.8398 42.2581 59.8398 43.0198C59.8398 43.4364 59.7682 43.8596 59.625 44.2893C59.4883 44.7125 59.2962 45.1357 59.0488 45.5588C58.8079 45.982 58.5247 46.3987 58.1992 46.8088C57.8802 47.219 57.5384 47.6226 57.1738 48.0198L53.3652 52.1506H60.4941ZM72.0371 48.8499V50.3342H61.7637V49.2698L68.1309 39.4163H69.6055L68.0234 42.2678L63.8145 48.8499H72.0371ZM70.0547 39.4163V53.635H68.248V39.4163H70.0547ZM80.7383 43.0686H82.5449L82.3887 47.0237C82.3496 48.0263 82.2357 48.8922 82.0469 49.6213C81.8581 50.3505 81.6172 50.9722 81.3242 51.4866C81.0312 51.9944 80.7025 52.4208 80.3379 52.7659C79.9798 53.1109 79.6087 53.4006 79.2246 53.635H78.3262L78.375 52.1604L78.7461 52.1506C78.9609 51.8967 79.1693 51.6363 79.3711 51.3694C79.5729 51.0959 79.7585 50.7737 79.9277 50.4026C80.097 50.025 80.237 49.566 80.3477 49.0256C80.4648 48.4788 80.5397 47.8114 80.5723 47.0237L80.7383 43.0686ZM81.1875 43.0686H87.5449V53.635H85.7383V44.7385H81.1875V43.0686ZM77.916 52.1506H88.9023V56.7502H87.0957V53.635H79.7227V56.7502H77.9062L77.916 52.1506ZM96.9785 51.2327L100.572 43.0686H102.311L97.6035 53.635H96.3535L91.666 43.0686H93.4043L96.9785 51.2327ZM92.877 43.0686V53.635H91.0703V43.0686H92.877ZM101.021 53.635V43.0686H102.838V53.635H101.021ZM106.969 42.6389H107.789C108.108 42.6389 108.372 42.5933 108.58 42.5022C108.788 42.4111 108.945 42.2874 109.049 42.1311C109.16 41.9683 109.215 41.7828 109.215 41.5745C109.215 41.288 109.111 41.0471 108.902 40.8518C108.694 40.6565 108.365 40.5588 107.916 40.5588C107.545 40.5588 107.236 40.6402 106.988 40.803C106.747 40.9657 106.627 41.1871 106.627 41.467H105.094C105.094 41.0243 105.217 40.6435 105.465 40.3245C105.712 39.9989 106.048 39.7483 106.471 39.5725C106.894 39.3967 107.366 39.3088 107.887 39.3088C108.453 39.3088 108.951 39.3935 109.381 39.5627C109.811 39.7255 110.146 39.9696 110.387 40.2952C110.628 40.6207 110.748 41.0211 110.748 41.4963C110.748 41.8414 110.641 42.1604 110.426 42.4534C110.217 42.7398 109.911 42.9709 109.508 43.1467C109.111 43.316 108.626 43.4006 108.053 43.4006H106.969V42.6389ZM106.969 43.762V43.0002H108.053C108.704 43.0002 109.238 43.0784 109.654 43.2346C110.071 43.3909 110.38 43.6155 110.582 43.9084C110.784 44.2014 110.885 44.5562 110.885 44.9729C110.885 45.4482 110.755 45.8551 110.494 46.1936C110.234 46.5321 109.876 46.7893 109.42 46.9651C108.971 47.1409 108.463 47.2288 107.896 47.2288C107.408 47.2288 106.939 47.1506 106.49 46.9944C106.048 46.8316 105.686 46.581 105.406 46.2424C105.126 45.9039 104.986 45.4709 104.986 44.9436H106.52C106.52 45.2366 106.65 45.484 106.91 45.6858C107.171 45.8811 107.516 45.9788 107.945 45.9788C108.401 45.9788 108.746 45.8778 108.98 45.676C109.221 45.4742 109.342 45.2138 109.342 44.8948C109.342 44.6213 109.277 44.4032 109.146 44.2405C109.023 44.0712 108.844 43.9508 108.609 43.8792C108.382 43.801 108.108 43.762 107.789 43.762H106.969Z" fill="black"/>
<path d="M3.18359 72.3245V80.635H1.37695V70.0686H3.08594L3.18359 72.3245ZM2.75391 74.9514L2.00195 74.9221C2.00846 74.1995 2.11589 73.5321 2.32422 72.9202C2.53255 72.3017 2.82552 71.7646 3.20312 71.3088C3.58073 70.8531 4.02995 70.5015 4.55078 70.2542C5.07812 70.0002 5.66081 69.8733 6.29883 69.8733C6.81966 69.8733 7.28841 69.9449 7.70508 70.0881C8.12174 70.2249 8.47656 70.4462 8.76953 70.7522C9.06901 71.0582 9.29688 71.4553 9.45312 71.9436C9.60938 72.4254 9.6875 73.0146 9.6875 73.7112V80.635H7.87109V73.6917C7.87109 73.1383 7.78971 72.6956 7.62695 72.3635C7.46419 72.025 7.22656 71.7808 6.91406 71.6311C6.60156 71.4749 6.21745 71.3967 5.76172 71.3967C5.3125 71.3967 4.90234 71.4911 4.53125 71.6799C4.16667 71.8687 3.85091 72.1292 3.58398 72.4612C3.32357 72.7932 3.11849 73.1741 2.96875 73.6038C2.82552 74.0269 2.75391 74.4762 2.75391 74.9514ZM25.6445 71.1135V72.6858H17.5V71.1135H25.6445ZM25.6445 75.1663V76.7385H17.5V75.1663H25.6445ZM42.0605 72.3928V74.5608C42.0605 75.7262 41.9564 76.7092 41.748 77.51C41.5397 78.3108 41.2402 78.9553 40.8496 79.4436C40.459 79.9319 39.987 80.2867 39.4336 80.5081C38.8867 80.7229 38.2682 80.8303 37.5781 80.8303C37.0312 80.8303 36.5267 80.762 36.0645 80.6252C35.6022 80.4885 35.1855 80.2704 34.8145 79.9709C34.4499 79.665 34.1374 79.2678 33.877 78.7795C33.6165 78.2913 33.418 77.6988 33.2812 77.0022C33.1445 76.3056 33.0762 75.4918 33.0762 74.5608V72.3928C33.0762 71.2275 33.1803 70.2509 33.3887 69.4631C33.6035 68.6754 33.9062 68.0439 34.2969 67.5686C34.6875 67.0868 35.1562 66.7418 35.7031 66.5334C36.2565 66.3251 36.875 66.2209 37.5586 66.2209C38.112 66.2209 38.6198 66.2893 39.082 66.426C39.5508 66.5562 39.9674 66.7678 40.332 67.0608C40.6966 67.3472 41.0059 67.7314 41.2598 68.2131C41.5202 68.6884 41.7188 69.2711 41.8555 69.9612C41.9922 70.6513 42.0605 71.4618 42.0605 72.3928ZM40.2441 74.8538V72.0901C40.2441 71.4521 40.2051 70.8922 40.127 70.4104C40.0553 69.9221 39.9479 69.5055 39.8047 69.1604C39.6615 68.8153 39.4792 68.5354 39.2578 68.3206C39.043 68.1057 38.7923 67.9495 38.5059 67.8518C38.2259 67.7476 37.9102 67.6956 37.5586 67.6956C37.1289 67.6956 36.748 67.7769 36.416 67.9397C36.084 68.0959 35.804 68.3466 35.5762 68.6917C35.3548 69.0367 35.1855 69.4892 35.0684 70.0491C34.9512 70.609 34.8926 71.2893 34.8926 72.0901V74.8538C34.8926 75.4918 34.9284 76.0549 35 76.5432C35.0781 77.0315 35.1921 77.4547 35.3418 77.8127C35.4915 78.1643 35.6738 78.454 35.8887 78.6819C36.1035 78.9097 36.3509 79.079 36.6309 79.1897C36.9173 79.2939 37.2331 79.3459 37.5781 79.3459C38.0208 79.3459 38.4082 79.2613 38.7402 79.092C39.0723 78.9228 39.349 78.6591 39.5703 78.301C39.7982 77.9364 39.9674 77.4709 40.0781 76.9045C40.1888 76.3316 40.2441 75.648 40.2441 74.8538ZM46.2207 78.4866V79.9417C46.2207 80.5341 46.071 81.1591 45.7715 81.8167C45.472 82.4807 45.0521 83.0341 44.5117 83.4768L43.4863 82.7639C43.6947 82.4775 43.8704 82.1845 44.0137 81.885C44.1569 81.592 44.2643 81.2861 44.3359 80.967C44.4141 80.6545 44.4531 80.3225 44.4531 79.9709V78.4866H46.2207ZM54.2676 66.3381V80.635H52.4609V68.594L48.8184 69.9221V68.2913L53.9844 66.3381H54.2676ZM70.8105 78.2327L74.4043 70.0686H76.1426L71.4355 80.635H70.1855L65.498 70.0686H67.2363L70.8105 78.2327ZM66.709 70.0686V80.635H64.9023V70.0686H66.709ZM74.8535 80.635V70.0686H76.6699V80.635H74.8535ZM79.1016 75.469V75.2444C79.1016 74.4827 79.2122 73.7763 79.4336 73.1252C79.6549 72.4677 79.974 71.898 80.3906 71.4163C80.8073 70.928 81.3118 70.5504 81.9043 70.2834C82.4967 70.01 83.1608 69.8733 83.8965 69.8733C84.6387 69.8733 85.306 70.01 85.8984 70.2834C86.4974 70.5504 87.0052 70.928 87.4219 71.4163C87.8451 71.898 88.1673 72.4677 88.3887 73.1252C88.61 73.7763 88.7207 74.4827 88.7207 75.2444V75.469C88.7207 76.2307 88.61 76.9371 88.3887 77.5881C88.1673 78.2392 87.8451 78.8088 87.4219 79.2971C87.0052 79.7789 86.5007 80.1565 85.9082 80.4299C85.3223 80.6969 84.6582 80.8303 83.916 80.8303C83.1738 80.8303 82.5065 80.6969 81.9141 80.4299C81.3216 80.1565 80.8138 79.7789 80.3906 79.2971C79.974 78.8088 79.6549 78.2392 79.4336 77.5881C79.2122 76.9371 79.1016 76.2307 79.1016 75.469ZM80.9082 75.2444V75.469C80.9082 75.9963 80.9701 76.4944 81.0938 76.9631C81.2174 77.4254 81.403 77.8355 81.6504 78.1936C81.9043 78.5517 82.2201 78.8349 82.5977 79.0432C82.9753 79.245 83.4147 79.3459 83.916 79.3459C84.4108 79.3459 84.8438 79.245 85.2148 79.0432C85.5924 78.8349 85.9049 78.5517 86.1523 78.1936C86.3997 77.8355 86.5853 77.4254 86.709 76.9631C86.8392 76.4944 86.9043 75.9963 86.9043 75.469V75.2444C86.9043 74.7236 86.8392 74.232 86.709 73.7698C86.5853 73.301 86.3965 72.8876 86.1426 72.5295C85.8952 72.165 85.5827 71.8785 85.2051 71.6702C84.834 71.4618 84.3978 71.3577 83.8965 71.3577C83.4017 71.3577 82.9655 71.4618 82.5879 71.6702C82.2168 71.8785 81.9043 72.165 81.6504 72.5295C81.403 72.8876 81.2174 73.301 81.0938 73.7698C80.9701 74.232 80.9082 74.7236 80.9082 75.2444ZM97.8906 70.0686V71.5627H92.7832V70.0686H97.8906ZM99.4824 70.0686V80.635H97.6758V70.0686H99.4824ZM92.3438 70.0686H94.1602L93.8867 75.1663C93.8411 75.954 93.7663 76.6506 93.6621 77.2561C93.5645 77.8551 93.4277 78.3694 93.252 78.7991C93.0827 79.2288 92.8678 79.5803 92.6074 79.8538C92.3535 80.1207 92.0475 80.3193 91.6895 80.4495C91.3314 80.5732 90.918 80.635 90.4492 80.635H89.8828V79.0432L90.2734 79.0139C90.5534 78.9944 90.791 78.9293 90.9863 78.8186C91.1882 78.7079 91.3574 78.5452 91.4941 78.3303C91.6309 78.109 91.7415 77.8258 91.8262 77.4807C91.9173 77.1357 91.9857 76.7255 92.0312 76.2502C92.0833 75.775 92.1224 75.2216 92.1484 74.5901L92.3438 70.0686ZM103.877 73.7014H107.051C107.904 73.7014 108.623 73.8512 109.209 74.1506C109.795 74.4436 110.238 74.8505 110.537 75.3713C110.843 75.8857 110.996 76.4716 110.996 77.1292C110.996 77.6174 110.911 78.0764 110.742 78.5061C110.573 78.9293 110.319 79.3004 109.98 79.6194C109.648 79.9384 109.235 80.189 108.74 80.3713C108.252 80.5471 107.689 80.635 107.051 80.635H102.559V70.0686H104.365V79.1506H107.051C107.572 79.1506 107.988 79.0562 108.301 78.8674C108.613 78.6786 108.838 78.4345 108.975 78.135C109.111 77.8355 109.18 77.523 109.18 77.1975C109.18 76.8785 109.111 76.566 108.975 76.26C108.838 75.954 108.613 75.7001 108.301 75.4983C107.988 75.29 107.572 75.1858 107.051 75.1858H103.877V73.7014Z" fill="black"/>
<path d="M4.50781 113.545V124.111H2.70117V113.545H4.50781ZM11.4414 113.545L6.43164 119.599H3.90234L3.62891 118.017H5.69922L9.24414 113.545H11.4414ZM9.49805 124.111L5.61133 119.326L6.77344 118.017L11.793 124.111H9.49805ZM12.6719 118.945V118.72C12.6719 117.959 12.7826 117.252 13.0039 116.601C13.2253 115.944 13.5443 115.374 13.9609 114.892C14.3776 114.404 14.8822 114.026 15.4746 113.76C16.0671 113.486 16.7311 113.349 17.4668 113.349C18.209 113.349 18.8763 113.486 19.4688 113.76C20.0677 114.026 20.5755 114.404 20.9922 114.892C21.4154 115.374 21.7376 115.944 21.959 116.601C22.1803 117.252 22.291 117.959 22.291 118.72V118.945C22.291 119.707 22.1803 120.413 21.959 121.064C21.7376 121.715 21.4154 122.285 20.9922 122.773C20.5755 123.255 20.071 123.633 19.4785 123.906C18.8926 124.173 18.2285 124.306 17.4863 124.306C16.7441 124.306 16.0768 124.173 15.4844 123.906C14.8919 123.633 14.3841 123.255 13.9609 122.773C13.5443 122.285 13.2253 121.715 13.0039 121.064C12.7826 120.413 12.6719 119.707 12.6719 118.945ZM14.4785 118.72V118.945C14.4785 119.472 14.5404 119.97 14.6641 120.439C14.7878 120.901 14.9733 121.312 15.2207 121.67C15.4746 122.028 15.7904 122.311 16.168 122.519C16.5456 122.721 16.985 122.822 17.4863 122.822C17.9811 122.822 18.4141 122.721 18.7852 122.519C19.1628 122.311 19.4753 122.028 19.7227 121.67C19.9701 121.312 20.1556 120.901 20.2793 120.439C20.4095 119.97 20.4746 119.472 20.4746 118.945V118.72C20.4746 118.2 20.4095 117.708 20.2793 117.246C20.1556 116.777 19.9668 116.364 19.7129 116.006C19.4655 115.641 19.153 115.355 18.7754 115.146C18.4043 114.938 17.9681 114.834 17.4668 114.834C16.972 114.834 16.5358 114.938 16.1582 115.146C15.7871 115.355 15.4746 115.641 15.2207 116.006C14.9733 116.364 14.7878 116.777 14.6641 117.246C14.5404 117.708 14.4785 118.2 14.4785 118.72ZM31.4609 113.545V115.039H26.3535V113.545H31.4609ZM33.0527 113.545V124.111H31.2461V113.545H33.0527ZM25.9141 113.545H27.7305L27.457 118.642C27.4115 119.43 27.3366 120.127 27.2324 120.732C27.1348 121.331 26.998 121.845 26.8223 122.275C26.653 122.705 26.4382 123.056 26.1777 123.33C25.9238 123.597 25.6178 123.795 25.2598 123.926C24.9017 124.049 24.4883 124.111 24.0195 124.111H23.4531V122.519L23.8438 122.49C24.1237 122.47 24.3613 122.405 24.5566 122.295C24.7585 122.184 24.9277 122.021 25.0645 121.806C25.2012 121.585 25.3118 121.302 25.3965 120.957C25.4876 120.612 25.556 120.202 25.6016 119.726C25.6536 119.251 25.6927 118.698 25.7188 118.066L25.9141 113.545ZM39.7227 117.324V118.808H34.957V117.324H39.7227ZM46.4512 119.463H42.9844L42.9648 118.017H45.7969C46.3568 118.017 46.8223 117.962 47.1934 117.851C47.571 117.741 47.8542 117.575 48.043 117.353C48.2318 117.132 48.3262 116.858 48.3262 116.533C48.3262 116.279 48.2708 116.058 48.1602 115.869C48.056 115.674 47.8965 115.514 47.6816 115.39C47.4668 115.26 47.1999 115.166 46.8809 115.107C46.5684 115.042 46.2005 115.01 45.7773 115.01H43.4629V124.111H41.6562V113.545H45.7773C46.4479 113.545 47.0501 113.603 47.584 113.72C48.1243 113.838 48.5833 114.017 48.9609 114.258C49.3451 114.492 49.638 114.791 49.8398 115.156C50.0417 115.521 50.1426 115.95 50.1426 116.445C50.1426 116.764 50.0775 117.067 49.9473 117.353C49.8171 117.64 49.625 117.894 49.3711 118.115C49.1172 118.336 48.8047 118.519 48.4336 118.662C48.0625 118.799 47.6361 118.886 47.1543 118.926L46.4512 119.463ZM46.4512 124.111H42.3301L43.2285 122.646H46.4512C46.9525 122.646 47.3691 122.584 47.7012 122.461C48.0332 122.33 48.2806 122.148 48.4434 121.914C48.6126 121.673 48.6973 121.386 48.6973 121.054C48.6973 120.722 48.6126 120.439 48.4434 120.205C48.2806 119.964 48.0332 119.782 47.7012 119.658C47.3691 119.528 46.9525 119.463 46.4512 119.463H43.707L43.7266 118.017H47.1543L47.8086 118.564C48.388 118.61 48.8796 118.753 49.2832 118.994C49.6868 119.235 49.9928 119.541 50.2012 119.912C50.4095 120.276 50.5137 120.674 50.5137 121.103C50.5137 121.598 50.4193 122.034 50.2305 122.412C50.0482 122.789 49.7812 123.105 49.4297 123.359C49.0781 123.607 48.6517 123.795 48.1504 123.926C47.6491 124.049 47.0827 124.111 46.4512 124.111ZM52.457 118.945V118.72C52.457 117.959 52.5677 117.252 52.7891 116.601C53.0104 115.944 53.3294 115.374 53.7461 114.892C54.1628 114.404 54.6673 114.026 55.2598 113.76C55.8522 113.486 56.5163 113.349 57.252 113.349C57.9941 113.349 58.6615 113.486 59.2539 113.76C59.8529 114.026 60.3607 114.404 60.7773 114.892C61.2005 115.374 61.5228 115.944 61.7441 116.601C61.9655 117.252 62.0762 117.959 62.0762 118.72V118.945C62.0762 119.707 61.9655 120.413 61.7441 121.064C61.5228 121.715 61.2005 122.285 60.7773 122.773C60.3607 123.255 59.8561 123.633 59.2637 123.906C58.6777 124.173 58.0137 124.306 57.2715 124.306C56.5293 124.306 55.862 124.173 55.2695 123.906C54.6771 123.633 54.1693 123.255 53.7461 122.773C53.3294 122.285 53.0104 121.715 52.7891 121.064C52.5677 120.413 52.457 119.707 52.457 118.945ZM54.2637 118.72V118.945C54.2637 119.472 54.3255 119.97 54.4492 120.439C54.5729 120.901 54.7585 121.312 55.0059 121.67C55.2598 122.028 55.5755 122.311 55.9531 122.519C56.3307 122.721 56.7702 122.822 57.2715 122.822C57.7663 122.822 58.1992 122.721 58.5703 122.519C58.9479 122.311 59.2604 122.028 59.5078 121.67C59.7552 121.312 59.9408 120.901 60.0645 120.439C60.1947 119.97 60.2598 119.472 60.2598 118.945V118.72C60.2598 118.2 60.1947 117.708 60.0645 117.246C59.9408 116.777 59.752 116.364 59.498 116.006C59.2507 115.641 58.9382 115.355 58.5605 115.146C58.1895 114.938 57.7533 114.834 57.252 114.834C56.7572 114.834 56.321 114.938 55.9434 115.146C55.5723 115.355 55.2598 115.641 55.0059 116.006C54.7585 116.364 54.5729 116.777 54.4492 117.246C54.3255 117.708 54.2637 118.2 54.2637 118.72ZM75.5332 122.304V116.865C75.5332 116.448 75.4486 116.087 75.2793 115.781C75.1165 115.469 74.8691 115.228 74.5371 115.058C74.2051 114.889 73.7949 114.804 73.3066 114.804C72.8509 114.804 72.4505 114.883 72.1055 115.039C71.7669 115.195 71.5 115.4 71.3047 115.654C71.1159 115.908 71.0215 116.181 71.0215 116.474H69.2148C69.2148 116.097 69.3125 115.722 69.5078 115.351C69.7031 114.98 69.9831 114.645 70.3477 114.345C70.7188 114.039 71.1615 113.799 71.6758 113.623C72.1966 113.441 72.776 113.349 73.4141 113.349C74.1823 113.349 74.8594 113.48 75.4453 113.74C76.0378 114 76.5 114.394 76.832 114.922C77.1706 115.442 77.3398 116.097 77.3398 116.885V121.806C77.3398 122.158 77.3691 122.532 77.4277 122.929C77.4928 123.327 77.5872 123.668 77.7109 123.955V124.111H75.8262C75.735 123.903 75.6634 123.626 75.6113 123.281C75.5592 122.929 75.5332 122.604 75.5332 122.304ZM75.8457 117.705L75.8652 118.974H74.0391C73.5247 118.974 73.0658 119.017 72.6621 119.101C72.2585 119.179 71.9199 119.3 71.6465 119.463C71.373 119.625 71.1647 119.83 71.0215 120.078C70.8783 120.319 70.8066 120.602 70.8066 120.927C70.8066 121.26 70.8815 121.562 71.0312 121.836C71.181 122.109 71.4056 122.327 71.7051 122.49C72.0111 122.646 72.3854 122.724 72.8281 122.724C73.3815 122.724 73.8698 122.607 74.293 122.373C74.7161 122.138 75.0514 121.852 75.2988 121.513C75.5527 121.175 75.6895 120.846 75.709 120.527L76.4805 121.396C76.4349 121.67 76.3112 121.972 76.1094 122.304C75.9076 122.636 75.6374 122.955 75.2988 123.261C74.9668 123.561 74.5697 123.812 74.1074 124.013C73.6517 124.209 73.1374 124.306 72.5645 124.306C71.8483 124.306 71.2201 124.166 70.6797 123.886C70.1458 123.607 69.7292 123.232 69.4297 122.763C69.1367 122.288 68.9902 121.758 68.9902 121.172C68.9902 120.605 69.1009 120.107 69.3223 119.677C69.5436 119.241 69.8626 118.88 70.2793 118.594C70.696 118.301 71.1973 118.079 71.7832 117.929C72.3691 117.78 73.0234 117.705 73.7461 117.705H75.8457ZM84.332 113.545V124.111H82.5156V113.545H84.332ZM87.877 113.545V115.01H79.0391V113.545H87.877ZM88.7656 118.945V118.72C88.7656 117.959 88.8763 117.252 89.0977 116.601C89.319 115.944 89.638 115.374 90.0547 114.892C90.4714 114.404 90.9759 114.026 91.5684 113.76C92.1608 113.486 92.8249 113.349 93.5605 113.349C94.3027 113.349 94.9701 113.486 95.5625 113.76C96.1615 114.026 96.6693 114.404 97.0859 114.892C97.5091 115.374 97.8314 115.944 98.0527 116.601C98.2741 117.252 98.3848 117.959 98.3848 118.72V118.945C98.3848 119.707 98.2741 120.413 98.0527 121.064C97.8314 121.715 97.5091 122.285 97.0859 122.773C96.6693 123.255 96.1647 123.633 95.5723 123.906C94.9863 124.173 94.3223 124.306 93.5801 124.306C92.8379 124.306 92.1706 124.173 91.5781 123.906C90.9857 123.633 90.4779 123.255 90.0547 122.773C89.638 122.285 89.319 121.715 89.0977 121.064C88.8763 120.413 88.7656 119.707 88.7656 118.945ZM90.5723 118.72V118.945C90.5723 119.472 90.6341 119.97 90.7578 120.439C90.8815 120.901 91.0671 121.312 91.3145 121.67C91.5684 122.028 91.8841 122.311 92.2617 122.519C92.6393 122.721 93.0788 122.822 93.5801 122.822C94.0749 122.822 94.5078 122.721 94.8789 122.519C95.2565 122.311 95.569 122.028 95.8164 121.67C96.0638 121.312 96.2493 120.901 96.373 120.439C96.5033 119.97 96.5684 119.472 96.5684 118.945V118.72C96.5684 118.2 96.5033 117.708 96.373 117.246C96.2493 116.777 96.0605 116.364 95.8066 116.006C95.5592 115.641 95.2467 115.355 94.8691 115.146C94.498 114.938 94.0618 114.834 93.5605 114.834C93.0658 114.834 92.6296 114.938 92.252 115.146C91.8809 115.355 91.5684 115.641 91.3145 116.006C91.0671 116.364 90.8815 116.777 90.7578 117.246C90.6341 117.708 90.5723 118.2 90.5723 118.72ZM106.725 121.709L110.318 113.545H112.057L107.35 124.111H106.1L101.412 113.545H103.15L106.725 121.709ZM102.623 113.545V124.111H100.816V113.545H102.623ZM110.768 124.111V113.545H112.584V124.111H110.768ZM115.016 118.945V118.72C115.016 117.959 115.126 117.252 115.348 116.601C115.569 115.944 115.888 115.374 116.305 114.892C116.721 114.404 117.226 114.026 117.818 113.76C118.411 113.486 119.075 113.349 119.811 113.349C120.553 113.349 121.22 113.486 121.812 113.76C122.411 114.026 122.919 114.404 123.336 114.892C123.759 115.374 124.081 115.944 124.303 116.601C124.524 117.252 124.635 117.959 124.635 118.72V118.945C124.635 119.707 124.524 120.413 124.303 121.064C124.081 121.715 123.759 122.285 123.336 122.773C122.919 123.255 122.415 123.633 121.822 123.906C121.236 124.173 120.572 124.306 119.83 124.306C119.088 124.306 118.421 124.173 117.828 123.906C117.236 123.633 116.728 123.255 116.305 122.773C115.888 122.285 115.569 121.715 115.348 121.064C115.126 120.413 115.016 119.707 115.016 118.945ZM116.822 118.72V118.945C116.822 119.472 116.884 119.97 117.008 120.439C117.132 120.901 117.317 121.312 117.564 121.67C117.818 122.028 118.134 122.311 118.512 122.519C118.889 122.721 119.329 122.822 119.83 122.822C120.325 122.822 120.758 122.721 121.129 122.519C121.507 122.311 121.819 122.028 122.066 121.67C122.314 121.312 122.499 120.901 122.623 120.439C122.753 119.97 122.818 119.472 122.818 118.945V118.72C122.818 118.2 122.753 117.708 122.623 117.246C122.499 116.777 122.311 116.364 122.057 116.006C121.809 115.641 121.497 115.355 121.119 115.146C120.748 114.938 120.312 114.834 119.811 114.834C119.316 114.834 118.88 114.938 118.502 115.146C118.131 115.355 117.818 115.641 117.564 116.006C117.317 116.364 117.132 116.777 117.008 117.246C116.884 117.708 116.822 118.2 116.822 118.72ZM131.861 119.463H128.395L128.375 118.017H131.207C131.767 118.017 132.232 117.962 132.604 117.851C132.981 117.741 133.264 117.575 133.453 117.353C133.642 117.132 133.736 116.858 133.736 116.533C133.736 116.279 133.681 116.058 133.57 115.869C133.466 115.674 133.307 115.514 133.092 115.39C132.877 115.26 132.61 115.166 132.291 115.107C131.979 115.042 131.611 115.01 131.188 115.01H128.873V124.111H127.066V113.545H131.188C131.858 113.545 132.46 113.603 132.994 113.72C133.535 113.838 133.993 114.017 134.371 114.258C134.755 114.492 135.048 114.791 135.25 115.156C135.452 115.521 135.553 115.95 135.553 116.445C135.553 116.764 135.488 117.067 135.357 117.353C135.227 117.64 135.035 117.894 134.781 118.115C134.527 118.336 134.215 118.519 133.844 118.662C133.473 118.799 133.046 118.886 132.564 118.926L131.861 119.463ZM131.861 124.111H127.74L128.639 122.646H131.861C132.363 122.646 132.779 122.584 133.111 122.461C133.443 122.33 133.691 122.148 133.854 121.914C134.023 121.673 134.107 121.386 134.107 121.054C134.107 120.722 134.023 120.439 133.854 120.205C133.691 119.964 133.443 119.782 133.111 119.658C132.779 119.528 132.363 119.463 131.861 119.463H129.117L129.137 118.017H132.564L133.219 118.564C133.798 118.61 134.29 118.753 134.693 118.994C135.097 119.235 135.403 119.541 135.611 119.912C135.82 120.276 135.924 120.674 135.924 121.103C135.924 121.598 135.829 122.034 135.641 122.412C135.458 122.789 135.191 123.105 134.84 123.359C134.488 123.607 134.062 123.795 133.561 123.926C133.059 124.049 132.493 124.111 131.861 124.111ZM147.066 117.324V118.808H142.301V117.324H147.066ZM157.721 120.107H155.904C155.911 119.482 155.966 118.971 156.07 118.574C156.181 118.17 156.36 117.802 156.607 117.47C156.855 117.138 157.184 116.761 157.594 116.338C157.893 116.032 158.167 115.745 158.414 115.478C158.668 115.205 158.873 114.912 159.029 114.599C159.186 114.28 159.264 113.899 159.264 113.457C159.264 113.008 159.182 112.62 159.02 112.295C158.863 111.969 158.629 111.719 158.316 111.543C158.01 111.367 157.63 111.279 157.174 111.279C156.796 111.279 156.438 111.347 156.1 111.484C155.761 111.621 155.488 111.832 155.279 112.119C155.071 112.399 154.964 112.767 154.957 113.222H153.15C153.163 112.487 153.346 111.855 153.697 111.328C154.055 110.801 154.537 110.397 155.143 110.117C155.748 109.837 156.425 109.697 157.174 109.697C158.001 109.697 158.704 109.847 159.283 110.146C159.869 110.446 160.315 110.875 160.621 111.435C160.927 111.989 161.08 112.646 161.08 113.408C161.08 113.994 160.96 114.534 160.719 115.029C160.484 115.517 160.182 115.976 159.811 116.406C159.439 116.836 159.046 117.246 158.629 117.636C158.271 117.969 158.03 118.343 157.906 118.76C157.783 119.176 157.721 119.625 157.721 120.107ZM155.826 123.203C155.826 122.91 155.917 122.663 156.1 122.461C156.282 122.259 156.546 122.158 156.891 122.158C157.242 122.158 157.509 122.259 157.691 122.461C157.874 122.663 157.965 122.91 157.965 123.203C157.965 123.483 157.874 123.724 157.691 123.926C157.509 124.127 157.242 124.228 156.891 124.228C156.546 124.228 156.282 124.127 156.1 123.926C155.917 123.724 155.826 123.483 155.826 123.203Z" fill="black"/>
<path d="M206.094 45.9163H207.92L212.578 57.5081L217.227 45.9163H219.062L213.281 60.135H211.855L206.094 45.9163ZM205.498 45.9163H207.109L207.373 54.5881V60.135H205.498V45.9163ZM218.037 45.9163H219.648V60.135H217.773V54.5881L218.037 45.9163ZM229.854 54.1487V55.6135H224.268V54.1487H229.854ZM224.648 49.5686V60.135H222.842V49.5686H224.648ZM231.318 49.5686V60.135H229.502V49.5686H231.318ZM238.613 60.3303C237.878 60.3303 237.21 60.2066 236.611 59.9592C236.019 59.7053 235.508 59.3505 235.078 58.8948C234.655 58.439 234.329 57.8987 234.102 57.2737C233.874 56.6487 233.76 55.9651 233.76 55.2229V54.8127C233.76 53.9534 233.887 53.1884 234.141 52.5178C234.395 51.8407 234.74 51.2678 235.176 50.7991C235.612 50.3303 236.107 49.9755 236.66 49.7346C237.214 49.4937 237.786 49.3733 238.379 49.3733C239.134 49.3733 239.785 49.5035 240.332 49.7639C240.885 50.0243 241.338 50.3889 241.689 50.8577C242.041 51.3199 242.301 51.8668 242.471 52.4983C242.64 53.1233 242.725 53.8069 242.725 54.5491V55.3596H234.834V53.885H240.918V53.7483C240.892 53.2795 240.794 52.8238 240.625 52.3811C240.462 51.9384 240.202 51.5738 239.844 51.2874C239.486 51.0009 238.997 50.8577 238.379 50.8577C237.969 50.8577 237.591 50.9456 237.246 51.1213C236.901 51.2906 236.605 51.5445 236.357 51.8831C236.11 52.2216 235.918 52.635 235.781 53.1233C235.645 53.6116 235.576 54.1747 235.576 54.8127V55.2229C235.576 55.7242 235.645 56.1962 235.781 56.6389C235.924 57.0751 236.13 57.4592 236.396 57.7913C236.67 58.1233 236.999 58.3837 237.383 58.5725C237.773 58.7613 238.216 58.8557 238.711 58.8557C239.349 58.8557 239.889 58.7255 240.332 58.4651C240.775 58.2047 241.162 57.8564 241.494 57.4202L242.588 58.2893C242.36 58.6344 242.07 58.9631 241.719 59.2756C241.367 59.5881 240.934 59.842 240.42 60.0374C239.912 60.2327 239.31 60.3303 238.613 60.3303ZM256.963 54.1487V55.6135H251.377V54.1487H256.963ZM251.758 49.5686V60.135H249.951V49.5686H251.758ZM258.428 49.5686V60.135H256.611V49.5686H258.428ZM265.723 60.3303C264.987 60.3303 264.32 60.2066 263.721 59.9592C263.128 59.7053 262.617 59.3505 262.188 58.8948C261.764 58.439 261.439 57.8987 261.211 57.2737C260.983 56.6487 260.869 55.9651 260.869 55.2229V54.8127C260.869 53.9534 260.996 53.1884 261.25 52.5178C261.504 51.8407 261.849 51.2678 262.285 50.7991C262.721 50.3303 263.216 49.9755 263.77 49.7346C264.323 49.4937 264.896 49.3733 265.488 49.3733C266.243 49.3733 266.895 49.5035 267.441 49.7639C267.995 50.0243 268.447 50.3889 268.799 50.8577C269.15 51.3199 269.411 51.8668 269.58 52.4983C269.749 53.1233 269.834 53.8069 269.834 54.5491V55.3596H261.943V53.885H268.027V53.7483C268.001 53.2795 267.904 52.8238 267.734 52.3811C267.572 51.9384 267.311 51.5738 266.953 51.2874C266.595 51.0009 266.107 50.8577 265.488 50.8577C265.078 50.8577 264.701 50.9456 264.355 51.1213C264.01 51.2906 263.714 51.5445 263.467 51.8831C263.219 52.2216 263.027 52.635 262.891 53.1233C262.754 53.6116 262.686 54.1747 262.686 54.8127V55.2229C262.686 55.7242 262.754 56.1962 262.891 56.6389C263.034 57.0751 263.239 57.4592 263.506 57.7913C263.779 58.1233 264.108 58.3837 264.492 58.5725C264.883 58.7613 265.326 58.8557 265.82 58.8557C266.458 58.8557 266.999 58.7255 267.441 58.4651C267.884 58.2047 268.271 57.8564 268.604 57.4202L269.697 58.2893C269.469 58.6344 269.18 58.9631 268.828 59.2756C268.477 59.5881 268.044 59.842 267.529 60.0374C267.021 60.2327 266.419 60.3303 265.723 60.3303ZM278.809 49.5686H280.615L280.459 53.5237C280.42 54.5263 280.306 55.3922 280.117 56.1213C279.928 56.8505 279.688 57.4722 279.395 57.9866C279.102 58.4944 278.773 58.9208 278.408 59.2659C278.05 59.6109 277.679 59.9006 277.295 60.135H276.396L276.445 58.6604L276.816 58.6506C277.031 58.3967 277.24 58.1363 277.441 57.8694C277.643 57.5959 277.829 57.2737 277.998 56.9026C278.167 56.525 278.307 56.066 278.418 55.5256C278.535 54.9788 278.61 54.3114 278.643 53.5237L278.809 49.5686ZM279.258 49.5686H285.615V60.135H283.809V51.2385H279.258V49.5686ZM275.986 58.6506H286.973V63.2502H285.166V60.135H277.793V63.2502H275.977L275.986 58.6506ZM295.205 58.3284V52.8889C295.205 52.4722 295.12 52.1109 294.951 51.8049C294.788 51.4924 294.541 51.2515 294.209 51.0823C293.877 50.913 293.467 50.8284 292.979 50.8284C292.523 50.8284 292.122 50.9065 291.777 51.0627C291.439 51.219 291.172 51.4241 290.977 51.678C290.788 51.9319 290.693 52.2053 290.693 52.4983H288.887C288.887 52.1207 288.984 51.7463 289.18 51.3752C289.375 51.0042 289.655 50.6689 290.02 50.3694C290.391 50.0634 290.833 49.8225 291.348 49.6467C291.868 49.4644 292.448 49.3733 293.086 49.3733C293.854 49.3733 294.531 49.5035 295.117 49.7639C295.71 50.0243 296.172 50.4182 296.504 50.9456C296.842 51.4664 297.012 52.1207 297.012 52.9084V57.8303C297.012 58.1819 297.041 58.5562 297.1 58.9534C297.165 59.3505 297.259 59.6923 297.383 59.9788V60.135H295.498C295.407 59.9267 295.335 59.65 295.283 59.3049C295.231 58.9534 295.205 58.6278 295.205 58.3284ZM295.518 53.7288L295.537 54.9983H293.711C293.197 54.9983 292.738 55.0406 292.334 55.1252C291.93 55.2034 291.592 55.3238 291.318 55.4866C291.045 55.6493 290.837 55.8544 290.693 56.1018C290.55 56.3427 290.479 56.6259 290.479 56.9514C290.479 57.2834 290.553 57.5862 290.703 57.8596C290.853 58.1331 291.077 58.3512 291.377 58.5139C291.683 58.6702 292.057 58.7483 292.5 58.7483C293.053 58.7483 293.542 58.6311 293.965 58.3967C294.388 58.1624 294.723 57.8759 294.971 57.5374C295.225 57.1988 295.361 56.87 295.381 56.551L296.152 57.4202C296.107 57.6936 295.983 57.9963 295.781 58.3284C295.579 58.6604 295.309 58.9794 294.971 59.2854C294.639 59.5849 294.242 59.8355 293.779 60.0374C293.324 60.2327 292.809 60.3303 292.236 60.3303C291.52 60.3303 290.892 60.1903 290.352 59.9104C289.818 59.6305 289.401 59.2561 289.102 58.7874C288.809 58.3121 288.662 57.7815 288.662 57.1956C288.662 56.6292 288.773 56.1311 288.994 55.7014C289.215 55.2652 289.535 54.9039 289.951 54.6174C290.368 54.3245 290.869 54.1031 291.455 53.9534C292.041 53.8036 292.695 53.7288 293.418 53.7288H295.518ZM307.021 54.1487V55.6135H301.436V54.1487H307.021ZM301.816 49.5686V60.135H300.01V49.5686H301.816ZM308.486 49.5686V60.135H306.67V49.5686H308.486ZM310.918 54.969V54.7444C310.918 53.9827 311.029 53.2763 311.25 52.6252C311.471 51.9677 311.79 51.398 312.207 50.9163C312.624 50.428 313.128 50.0504 313.721 49.7834C314.313 49.51 314.977 49.3733 315.713 49.3733C316.455 49.3733 317.122 49.51 317.715 49.7834C318.314 50.0504 318.822 50.428 319.238 50.9163C319.661 51.398 319.984 51.9677 320.205 52.6252C320.426 53.2763 320.537 53.9827 320.537 54.7444V54.969C320.537 55.7307 320.426 56.4371 320.205 57.0881C319.984 57.7392 319.661 58.3088 319.238 58.7971C318.822 59.2789 318.317 59.6565 317.725 59.9299C317.139 60.1969 316.475 60.3303 315.732 60.3303C314.99 60.3303 314.323 60.1969 313.73 59.9299C313.138 59.6565 312.63 59.2789 312.207 58.7971C311.79 58.3088 311.471 57.7392 311.25 57.0881C311.029 56.4371 310.918 55.7307 310.918 54.969ZM312.725 54.7444V54.969C312.725 55.4963 312.786 55.9944 312.91 56.4631C313.034 56.9254 313.219 57.3355 313.467 57.6936C313.721 58.0517 314.036 58.3349 314.414 58.5432C314.792 58.745 315.231 58.8459 315.732 58.8459C316.227 58.8459 316.66 58.745 317.031 58.5432C317.409 58.3349 317.721 58.0517 317.969 57.6936C318.216 57.3355 318.402 56.9254 318.525 56.4631C318.656 55.9944 318.721 55.4963 318.721 54.969V54.7444C318.721 54.2236 318.656 53.732 318.525 53.2698C318.402 52.801 318.213 52.3876 317.959 52.0295C317.712 51.665 317.399 51.3785 317.021 51.1702C316.65 50.9618 316.214 50.8577 315.713 50.8577C315.218 50.8577 314.782 50.9618 314.404 51.1702C314.033 51.3785 313.721 51.665 313.467 52.0295C313.219 52.3876 313.034 52.801 312.91 53.2698C312.786 53.732 312.725 54.2236 312.725 54.7444Z" fill="black"/>
</svg>
